<svg xmlns="http://www.w3.org/2000/svg" width="256" height="256" viewBox="0 0 100 100"><rect width="100" height="100" rx="20" fill="#7d6ee7"></rect><path fill="#fff" d="M8.65 77.36L8.65 77.36Q6.85 77.36 5.77 76.28Q4.69 75.20 4.69 73.40L4.69 73.40L4.69 26.60Q4.69 24.80 5.77 23.72Q6.85 22.64 8.65 22.64L8.65 22.64L38.53 22.64Q38.80 23.09 39.07 23.86Q39.34 24.62 39.34 25.52L39.34 25.52Q39.34 27.05 38.62 27.95Q37.90 28.85 36.55 28.85L36.55 28.85L11.98 28.85L11.98 46.22L35.73 46.22Q36.01 46.67 36.28 47.44Q36.55 48.20 36.55 49.10L36.55 49.10Q36.55 50.63 35.83 51.48Q35.11 52.34 33.76 52.34L33.76 52.34L11.98 52.34L11.98 71.24L38.98 71.24Q39.25 71.69 39.52 72.41Q39.79 73.13 39.79 74.12L39.79 74.12Q39.79 75.65 39.07 76.50Q38.35 77.36 37.00 77.36L37.00 77.36L8.65 77.36ZM95.31 77.18L95.31 77.18Q94.78 77.36 93.88 77.58Q92.97 77.81 91.90 77.81L91.90 77.81Q87.94 77.81 87.94 74.48L87.94 74.48L87.94 52.70L59.86 52.70L59.86 77.18Q59.32 77.36 58.42 77.58Q57.52 77.81 56.44 77.81L56.44 77.81Q52.48 77.81 52.48 74.48L52.48 74.48L52.48 22.82Q52.93 22.64 53.87 22.41Q54.82 22.19 55.90 22.19L55.90 22.19Q59.86 22.19 59.86 25.52L59.86 25.52L59.86 46.58L87.94 46.58L87.94 22.82Q88.39 22.64 89.33 22.41Q90.28 22.19 91.36 22.19L91.36 22.19Q95.31 22.19 95.31 25.52L95.31 25.52L95.31 77.18Z"></path></svg>